HIERARCHY
ROOT Pelvis
{
	OFFSET 0.000000 0.000000 0.000000
	CHANNELS 6 Xposition Yposition Zposition Zrotation Yrotation Xrotation 
	JOINT Left_hip
	{
		OFFSET 0.069463 -0.088608 -0.009542
		CHANNELS 3 Zrotation Yrotation Xrotation
		JOINT Left_knee
		{
			OFFSET 0.030639 -0.359740 -0.005288
			CHANNELS 3 Zrotation Yrotation Xrotation
			JOINT Left_ankle
			{
				OFFSET -0.011068 -0.376034 -0.042462
				CHANNELS 3 Zrotation Yrotation Xrotation
				JOINT Left_foot
				{
					OFFSET 0.023192 -0.053321 0.111332
					CHANNELS 3 Zrotation Yrotation Xrotation
					End Site
					{
						OFFSET 0.000000 0.000000 0.000000
					}
				}
			}
		}
	}
	JOINT Right_hip
	{
		OFFSET -0.067438 -0.088025 -0.006263
		CHANNELS 3 Zrotation Yrotation Xrotation
		JOINT Right_knee
		{
			OFFSET -0.035962 -0.366229 -0.008063
			CHANNELS 3 Zrotation Yrotation Xrotation
			JOINT Right_ankle
			{
				OFFSET 0.013608 -0.375719 -0.040481
				CHANNELS 3 Zrotation Yrotation Xrotation
				JOINT Right_foot
				{
					OFFSET -0.021034 -0.045527 0.114617
					CHANNELS 3 Zrotation Yrotation Xrotation
					End Site
					{
						OFFSET 0.000000 0.000000 0.000000
					}
				}
			}
		}
	}
	JOINT Spine1
	{
		OFFSET -0.002610 0.101823 -0.019986
		CHANNELS 3 Zrotation Yrotation Xrotation
		JOINT Spine2
		{
			OFFSET 0.004114 0.128714 -0.000938
			CHANNELS 3 Zrotation Yrotation Xrotation
			JOINT Spine3
			{
				OFFSET 0.002191 0.048470 0.027684
				CHANNELS 3 Zrotation Yrotation Xrotation
				JOINT Neck
				{
					OFFSET -0.002856 0.198873 -0.044022
					CHANNELS 3 Zrotation Yrotation Xrotation
					JOINT Head
					{
						OFFSET 0.002981 0.062960 0.049860
						CHANNELS 3 Zrotation Yrotation Xrotation
						End Site
						{
							OFFSET 0.000000 0.000000 0.000000
						}
					}
				}
				JOINT Left_collar
				{
					OFFSET 0.073708 0.112550 -0.033440
					CHANNELS 3 Zrotation Yrotation Xrotation
					JOINT Left_shoulder
					{
						OFFSET 0.083291 0.030786 -0.008013
						CHANNELS 3 Zrotation Yrotation Xrotation
						JOINT Left_elbow
						{
							OFFSET 0.245601 -0.011792 -0.027873
							CHANNELS 3 Zrotation Yrotation Xrotation
							JOINT Left_wrist
							{
								OFFSET 0.232258 0.008622 -0.000487
								CHANNELS 3 Zrotation Yrotation Xrotation
								JOINT Left_palm
								{
									OFFSET 0.077300 -0.009457 -0.012851
									CHANNELS 3 Zrotation Yrotation Xrotation
									End Site
									{
										OFFSET 0.000000 0.000000 0.000000
									}
								}
							}
						}
					}
				}
				JOINT Right_collar
				{
					OFFSET -0.075339 0.110574 -0.037874
					CHANNELS 3 Zrotation Yrotation Xrotation
					JOINT Right_shoulder
					{
						OFFSET -0.086522 0.031207 -0.009986
						CHANNELS 3 Zrotation Yrotation Xrotation
						JOINT Right_elbow
						{
							OFFSET -0.237313 -0.011478 -0.019859
							CHANNELS 3 Zrotation Yrotation Xrotation
							JOINT Right_wrist
							{
								OFFSET -0.237599 0.007976 -0.003742
								CHANNELS 3 Zrotation Yrotation Xrotation
								JOINT Right_palm
								{
									OFFSET -0.076920 -0.006943 -0.009920
									CHANNELS 3 Zrotation Yrotation Xrotation
									End Site
									{
										OFFSET 0.000000 0.000000 0.000000
									}
								}
							}
						}
					}
				}
			}
		}
	}
}
MOTION
Frames: 5
Frame Time: 0.100000
-0.575084 0.009498 2.231604 -168.281696 23.167401 -22.726385 11.571439 11.615095 -67.789576 -2.806285 25.784285 115.469025 1.478702 -12.925163 -8.833592 -4.757225 21.752671 -25.236564 -15.253476 -11.374453 10.446182 0.468650 0.952756 112.306649 -7.740795 -3.633931 -7.411098 23.346739 -16.033280 -27.823356 1.381774 4.203021 38.800412 0.416456 -7.642735 -5.075003 -0.912266 -3.868903 -5.184682 -5.294832 -21.850190 -1.575588 -3.249207 -4.775866 -5.914815 -22.633035 -12.340945 4.980954 -50.610940 -18.027336 6.921834 108.068313 -77.209301 -67.789696 6.426289 -7.402742 -0.656597 -5.434582 2.936397 -6.979306 5.838241 19.357623 -8.328426 39.756526 27.008284 5.187103 -120.581679 57.863476 -95.131945 -12.657963 3.760432 1.462990 0.652620 6.318708 5.125272 
-0.574044 0.005305 2.240188 -168.038108 23.243183 -23.626715 12.114212 12.301916 -65.582191 -4.000616 25.414201 115.426753 0.955802 -14.440124 -9.324720 -4.886588 21.621992 -25.240385 -15.492391 -11.774084 12.894096 0.646377 1.478077 110.592928 -7.615383 -4.137302 -6.997822 22.839905 -15.346640 -27.202229 1.106230 4.186274 36.607900 -0.660160 -7.726263 -5.117375 -1.779137 -3.780794 -5.045948 -5.655988 -22.259943 1.147627 -4.593650 -4.435279 -2.639363 -21.826916 -12.977121 4.839951 -50.172794 -18.028817 7.351844 108.392313 -79.435784 -67.521844 5.492938 -8.611186 -1.780124 -4.745484 3.204022 -6.316675 2.432314 21.075814 -10.547114 34.082120 32.745127 1.735018 -121.545093 57.816648 -95.049336 -13.935480 5.187328 5.932619 0.428516 6.399384 5.917743 
-0.570765 0.002673 2.249740 -168.269758 23.618067 -25.017863 12.741026 12.343936 -63.964728 -4.905608 24.812220 115.740668 0.413747 -14.905782 -8.964233 -4.617681 21.776681 -26.116350 -15.255114 -12.334473 15.897786 0.626417 1.684117 109.801607 -7.491684 -6.274536 -8.538306 21.476166 -14.157432 -27.613944 0.545187 4.595599 34.846810 -1.560698 -7.424063 -5.093582 -2.448179 -3.640601 -4.927572 -5.349967 -22.402054 3.609820 -5.102636 -4.271600 1.040781 -21.397477 -12.456200 5.070762 -50.183623 -17.833199 8.446206 111.720641 -81.865930 -69.804789 5.484709 -9.078854 -2.860676 -4.056023 3.339444 -6.120857 1.221792 21.848508 -10.939537 31.796080 34.723227 -0.442038 -109.533746 58.638586 -84.535052 -15.471812 5.378314 8.368984 0.299795 6.128855 5.870428 
-0.567100 0.000687 2.258264 -168.411601 24.025580 -26.049416 13.190228 11.987523 -62.768371 -5.516614 24.454092 116.007985 0.190292 -14.732819 -8.717608 -4.445769 21.368803 -26.303239 -15.062980 -12.544236 18.400112 0.564186 1.435951 108.194867 -7.896696 -6.619630 -8.543906 21.616120 -13.582478 -26.576985 -0.356175 5.286801 33.372506 -1.802445 -7.113130 -4.962201 -2.835721 -3.550801 -4.642793 -4.966258 -21.580532 4.627427 -5.358987 -4.746513 3.941047 -22.073815 -10.750933 5.522552 -49.858222 -17.166954 9.758789 116.373058 -83.426887 -74.578406 5.349471 -9.522950 -5.042240 -4.080550 3.698907 -6.113439 3.880802 21.225483 -9.600046 34.647498 33.927678 1.303087 -92.263668 58.293851 -71.986660 -14.909226 3.846176 2.856343 0.564451 5.581780 5.860207 
-0.565941 -0.002104 2.264082 -167.788973 24.019451 -26.289162 13.144242 11.909872 -61.864369 -5.617005 24.731411 116.180265 -0.128904 -14.263604 -7.946918 -4.022726 21.451782 -27.110670 -15.800918 -12.460657 19.785241 0.560590 1.409479 107.047000 -8.295759 -7.415541 -8.480249 21.346859 -12.797313 -26.040339 -0.990644 5.739676 31.743231 -1.971956 -6.430494 -4.810275 -3.224922 -3.512397 -4.221866 -5.434375 -20.111847 4.551535 -6.380418 -4.855951 5.858753 -22.707093 -8.077850 5.899857 -49.345747 -16.550589 10.598893 115.607209 -84.688746 -74.231360 4.242828 -9.657496 -6.829907 -4.183937 4.370036 -6.134514 7.894352 19.404665 -7.508955 40.039694 31.158504 5.073404 -73.980060 56.906455 -60.094181 -11.103333 1.453227 -6.251381 0.225957 4.642950 5.926201 
